<?xml version="1.0" encoding="UTF-8"?>
<svg version="1.1" xmlns="http://www.w3.org/2000/svg" width="125" height="146">
<path d="M0 0 C41.25 0 82.5 0 125 0 C125 48.18 125 96.36 125 146 C83.75 146 42.5 146 0 146 C0 97.82 0 49.64 0 0 Z " fill="#914E32" transform="translate(0,0)"/>
<path d="M0 0 C41.25 0 82.5 0 125 0 C125 23.43 125 46.86 125 71 C123.35 71 121.7 71 120 71 C118.3046875 69.13671875 118.3046875 69.13671875 116.875 66.6875 C114.91684301 63.34553196 114.91684301 63.34553196 112.3828125 60.45703125 C109.06622711 56.96243704 109.56031138 51.32021339 109.56640625 46.7734375 C110.25765837 42.35191493 112.71101745 39.86807109 116 37 C115.34 37 114.68 37 114 37 C113.87882812 36.32453125 113.75765625 35.6490625 113.6328125 34.953125 C113.46523437 34.06109375 113.29765625 33.1690625 113.125 32.25 C112.96257812 31.36828125 112.80015625 30.4865625 112.6328125 29.578125 C111.84588573 26.37212705 111.10795966 23.84832178 108.42163086 21.79150391 C102.88897288 19.04621029 97.66985652 18.06191249 91.5625 17.375 C85.59482539 16.64902655 79.78942716 15.78156203 73.93237305 14.41894531 C60.2009708 11.44192873 42.96165758 15.32517949 30.890625 22.0625 C23.52555559 26.99908706 20.05914547 33.23840451 16.359375 41.16796875 C14.60550898 44.8218563 12.53930222 48.1810596 10.3125 51.5625 C7.24251421 59.60293898 8.61435253 67.36296872 12 75 C12.51496067 76.51583295 13.01459623 78.03694528 13.5 79.5625 C14.80106505 83.49294257 16.20965468 87.26362715 18 91 C18.66 91.33 19.32 91.66 20 92 C21.06639644 93.62498505 22.04710343 95.30596166 23 97 C23.41894531 97.7115625 23.83789062 98.423125 24.26953125 99.15625 C24.71683594 99.9296875 25.16414063 100.703125 25.625 101.5 C26.05039062 102.2321875 26.47578125 102.964375 26.9140625 103.71875 C28.08310277 106.17457559 28.57851544 108.31935822 29 111 C29.13664062 111.70640625 29.27328125 112.4128125 29.4140625 113.140625 C29.79728203 116.97282027 29.60721129 119.17847884 27.2734375 122.3359375 C24.93959342 124.68582175 22.52198235 126.85396533 20 129 C18.90945312 129.99773437 18.90945312 129.99773437 17.796875 131.015625 C14.3676249 134.13074532 11.01602348 136.67493378 7 139 C5.90360062 139.87979365 4.82071924 140.77662747 3.75 141.6875 C1 144 1 144 0 144 C0 96.48 0 48.96 0 0 Z " fill="#FEFEFE" transform="translate(0,0)"/>
<path d="M0 0 C7.8345119 -0.38247223 15.52472152 1.67309439 23.13671875 3.30859375 C27.22315024 4.17727575 31.27417568 4.79368006 35.41796875 5.31640625 C40.18226284 6.03105036 43.48534117 6.85240044 47.04296875 10.31640625 C49.75926025 15.1151879 50.37812199 18.84223668 50.04296875 24.31640625 C50.70296875 24.31640625 51.36296875 24.31640625 52.04296875 24.31640625 C51.04296875 27.31640625 51.04296875 27.31640625 49.04296875 29.12890625 C46.58180347 31.82080578 46.36777243 33.74356579 46.04296875 37.31640625 C40.46963542 35.54307292 40.46963542 35.54307292 38.04296875 34.25390625 C32.29246588 31.55835803 25.50489278 32.13315517 19.29296875 32.12890625 C18.33519531 32.11666016 17.37742187 32.10441406 16.390625 32.09179688 C15.47667969 32.08986328 14.56273438 32.08792969 13.62109375 32.0859375 C12.7899707 32.08182861 11.95884766 32.07771973 11.10253906 32.07348633 C8.81921455 32.12721902 8.81921455 32.12721902 7.04296875 34.31640625 C6.36356408 36.74355831 6.36356408 36.74355831 5.91796875 39.44140625 C5.75039062 40.35148437 5.5828125 41.2615625 5.41015625 42.19921875 C5.22839844 43.24722656 5.22839844 43.24722656 5.04296875 44.31640625 C3.72296875 44.31640625 2.40296875 44.31640625 1.04296875 44.31640625 C1.04296875 44.97640625 1.04296875 45.63640625 1.04296875 46.31640625 C0.05296875 46.64640625 -0.93703125 46.97640625 -1.95703125 47.31640625 C-2.45203125 48.30640625 -2.45203125 48.30640625 -2.95703125 49.31640625 C-6.98258381 52.39476997 -9.96518389 52.61004433 -14.95703125 52.31640625 C-15.28703125 53.30640625 -15.61703125 54.29640625 -15.95703125 55.31640625 C-19.25703125 55.97640625 -22.55703125 56.63640625 -25.95703125 57.31640625 C-25.95703125 58.30640625 -25.95703125 59.29640625 -25.95703125 60.31640625 C-27.453125 61.38671875 -27.453125 61.38671875 -29.39453125 62.44140625 C-31.71819413 63.99365069 -32.77624987 64.80388172 -33.71484375 67.46484375 C-34.28814871 71.88958203 -34.15324395 75.3115478 -31.95703125 79.31640625 C-31.29703125 79.31640625 -30.63703125 79.31640625 -29.95703125 79.31640625 C-27.53448468 86.58404596 -29.06319122 92.56411285 -31.95703125 99.31640625 C-32.61703125 99.31640625 -33.27703125 99.31640625 -33.95703125 99.31640625 C-34.42753906 98.34058594 -34.89804687 97.36476563 -35.3828125 96.359375 C-36.01139664 95.07406117 -36.64032077 93.78891358 -37.26953125 92.50390625 C-37.57826172 91.86130859 -37.88699219 91.21871094 -38.20507812 90.55664062 C-39.81078424 87.29452188 -41.37073806 84.83903684 -43.95703125 82.31640625 C-43.95703125 81.32640625 -43.95703125 80.33640625 -43.95703125 79.31640625 C-44.94703125 78.98640625 -45.93703125 78.65640625 -46.95703125 78.31640625 C-50.85712475 71.97875432 -52.78625851 64.85629688 -54.37890625 57.65234375 C-54.73005842 55.37120578 -54.73005842 55.37120578 -55.95703125 54.31640625 C-57.04206299 44.90763101 -55.19952188 37.82515046 -49.42578125 30.328125 C-47.8543709 28.17579433 -46.85383924 26.05979167 -45.76953125 23.62890625 C-40.87262824 13.82065509 -34.45179093 7.52500873 -23.95556641 3.90234375 C-16.15363421 1.61494609 -8.05331043 0.86171485 0 0 Z " fill="#040202" transform="translate(63.95703125,12.68359375)"/>
<path d="M0 0 C0.8765625 0.02835938 1.753125 0.05671875 2.65625 0.0859375 C3.6565625 0.14007813 4.656875 0.19421875 5.6875 0.25 C6.8734375 0.30414063 8.059375 0.35828125 9.28125 0.4140625 C18.97889472 0.96413899 24.67381471 2.23631471 31.6875 9.25 C31.935 9.971875 32.1825 10.69375 32.4375 11.4375 C33.91261026 14.75649808 35.89814013 16.95440816 38.34765625 19.6015625 C39.6875 21.25 39.6875 21.25 40.6875 24.25 C42.3375 24.58 43.9875 24.91 45.6875 25.25 C45.6875 50 45.6875 74.75 45.6875 100.25 C38.0975 100.25 30.5075 100.25 22.6875 100.25 C21.0375 98.6 19.3875 96.95 17.6875 95.25 C16.924375 94.569375 16.16125 93.88875 15.375 93.1875 C13.6875 91.25 13.6875 91.25 13.6875 87.25 C15.3271875 87.435625 15.3271875 87.435625 17 87.625 C23.03269388 87.6572604 27.73991812 84.40754061 32.6875 81.25 C33.81671875 80.69892578 33.81671875 80.69892578 34.96875 80.13671875 C37.88467615 76.93582709 37.37035662 73.05093479 37.4375 68.875 C37.46642334 67.98264648 37.49534668 67.09029297 37.52514648 66.17089844 C37.60340894 63.53043261 37.6523294 60.89136275 37.6875 58.25 C37.6973291 57.52071289 37.7071582 56.79142578 37.71728516 56.04003906 C37.75503502 52.44238972 37.74658012 48.84732307 37.6875 45.25 C36.30691406 45.48009766 36.30691406 45.48009766 34.8984375 45.71484375 C33.83882812 45.89144531 32.77921875 46.06804687 31.6875 46.25 C30.57375 46.435625 29.46 46.62125 28.3125 46.8125 C27.44625 46.956875 26.58 47.10125 25.6875 47.25 C26.0175 45.27 26.3475 43.29 26.6875 41.25 C25.3675 41.25 24.0475 41.25 22.6875 41.25 C22.6875 41.91 22.6875 42.57 22.6875 43.25 C16.3322755 44.7697276 11.77041273 43.4163492 5.6875 41.25 C5.6875 40.26 5.6875 39.27 5.6875 38.25 C7.1725 37.755 7.1725 37.755 8.6875 37.25 C7.40252463 34.68004926 6.18837627 34.34565537 3.625 33.125 C2.89152344 32.77179688 2.15804687 32.41859375 1.40234375 32.0546875 C0.83644531 31.78914063 0.27054688 31.52359375 -0.3125 31.25 C-0.3125 30.92 -0.3125 30.59 -0.3125 30.25 C2.6575 30.25 5.6275 30.25 8.6875 30.25 C8.6875 31.24 8.6875 32.23 8.6875 33.25 C9.285625 33.394375 9.88375 33.53875 10.5 33.6875 C12.24900404 34.1372439 13.97427023 34.67892341 15.6875 35.25 C15.6875 32.28 15.6875 29.31 15.6875 26.25 C14.20378906 26.26160156 12.72007813 26.27320312 11.19140625 26.28515625 C9.21093877 26.29454235 7.23046991 26.30364167 5.25 26.3125 C3.78916992 26.32506836 3.78916992 26.32506836 2.29882812 26.33789062 C-3.66028969 26.35782078 -9.40317683 26.02609518 -15.3125 25.25 C-14.6525 26.9 -13.9925 28.55 -13.3125 30.25 C-14.9625 31.57 -16.6125 32.89 -18.3125 34.25 C-18.36699838 32.52119018 -18.40551688 30.79187288 -18.4375 29.0625 C-18.46070313 28.09957031 -18.48390625 27.13664062 -18.5078125 26.14453125 C-18.20553181 21.66473147 -17.22536103 19.06923426 -13.875 16.0625 C-12.03979799 14.76443029 -10.18284679 13.49689786 -8.3125 12.25 C-7.84319851 10.15156674 -7.84319851 10.15156674 -7.8125 7.8125 C-7.70604395 5.12004912 -7.62658299 3.6904941 -6.05078125 1.48046875 C-3.84779133 -0.07895108 -2.68352273 -0.09020244 0 0 Z " fill="#98573D" transform="translate(79.3125,45.75)"/>
<path d="M0 0 C0 18.15 0 36.3 0 55 C-7.59 55 -15.18 55 -23 55 C-24.65 53.35 -26.3 51.7 -28 50 C-28.763125 49.319375 -29.52625 48.63875 -30.3125 47.9375 C-32 46 -32 46 -32 42 C-30.3603125 42.185625 -30.3603125 42.185625 -28.6875 42.375 C-22.65480612 42.4072604 -17.94758188 39.15754061 -13 36 C-12.30519531 35.61779297 -11.61039063 35.23558594 -10.89453125 34.84179688 C-8.07278641 32.09859545 -8.36148359 29.79695656 -8.171875 25.92578125 C-8.1331427 25.2419487 -8.0944104 24.55811615 -8.05450439 23.8535614 C-7.93514075 21.67371162 -7.84225258 19.49364883 -7.75 17.3125 C-7.67361762 15.83259132 -7.59551272 14.35277047 -7.515625 12.87304688 C-7.32376792 9.24950296 -7.15562762 5.62530108 -7 2 C-1.125 0 -1.125 0 0 0 Z " fill="#FFFFFF" transform="translate(125,91)"/>
<path d="M0 0 C0.99 0 1.98 0 3 0 C5.49505962 2.49505962 5.35948376 3.67328888 5.625 7.125 C5.69976562 8.03507812 5.77453125 8.94515625 5.8515625 9.8828125 C5.90054688 10.58148438 5.94953125 11.28015625 6 12 C6.99 12 7.98 12 9 12 C8.67 10.68 8.34 9.36 8 8 C8.66 8 9.32 8 10 8 C10.12375 8.639375 10.2475 9.27875 10.375 9.9375 C10.58125 10.618125 10.7875 11.29875 11 12 C11.66 12.33 12.32 12.66 13 13 C12.5359375 11.8553125 12.5359375 11.8553125 12.0625 10.6875 C11.32106407 8.81210323 10.63771783 6.91315348 10 5 C11.98 5 13.96 5 16 5 C16.495 6.98 16.495 6.98 17 9 C16.34 9 15.68 9 15 9 C15 9.66 15 10.32 15 11 C15.99 11.33 16.98 11.66 18 12 C18 12.99 18 13.98 18 15 C18.99 15 19.98 15 21 15 C21.29296875 21.0546875 21.29296875 21.0546875 21 23 C18 25 18 25 14 25 C14 28.63 14 32.26 14 36 C13.67 36 13.34 36 13 36 C13 31.71 13 27.42 13 23 C9.875 23.52083333 6.75 24.04166667 3.625 24.5625 C2.75875 24.706875 1.8925 24.85125 1 25 C1.33 23.02 1.66 21.04 2 19 C0.68 19 -0.64 19 -2 19 C-2 19.66 -2 20.32 -2 21 C-8.3552245 22.5197276 -12.91708727 21.1663492 -19 19 C-19 18.01 -19 17.02 -19 16 C-14.76906904 13.17937936 -10.92545589 13.6614939 -5.93359375 13.5390625 C-2.91875756 13.33085273 -2.91875756 13.33085273 -1.63671875 11.15234375 C-0.53495722 7.42798424 0 3.88161015 0 0 Z " fill="#AC664B" transform="translate(104,68)"/>
<path d="M0 0 C-0.875 6.75 -0.875 6.75 -2 9 C-2.07173806 11.55387492 -2.09287732 14.07276761 -2.0625 16.625 C-2.041875 19.05875 -2.02125 21.4925 -2 24 C-11.57 24 -21.14 24 -31 24 C-30.34 22.68 -29.68 21.36 -29 20 C-28.34 20 -27.68 20 -27 20 C-26.67 19.01 -26.34 18.02 -26 17 C-25.13375 16.5875 -24.2675 16.175 -23.375 15.75 C-19.75617881 13.8735742 -17.6516703 11.81528401 -14.859375 8.91796875 C-12.91136067 6.90856742 -10.9278397 4.96484957 -8.875 3.0625 C-8.25367187 2.47597656 -7.63234375 1.88945313 -6.9921875 1.28515625 C-4.51091948 -0.31550489 -2.89709009 -0.24560106 0 0 Z " fill="#693038" transform="translate(31,122)"/>
<path d="M0 0 C0.90169922 0.00064453 1.80339844 0.00128906 2.73242188 0.00195312 C4.14297852 0.02612305 4.14297852 0.02612305 5.58203125 0.05078125 C6.96358398 0.04594727 6.96358398 0.04594727 8.37304688 0.04101562 C15.7222167 0.09839027 22.31271752 0.96230961 28.89453125 4.48828125 C30.62703125 5.41640625 30.62703125 5.41640625 32.39453125 6.36328125 C32.06453125 7.68328125 31.73453125 9.00328125 31.39453125 10.36328125 C29.96223958 9.09375 28.52994792 7.82421875 27.09765625 6.5546875 C20.21672479 1.74119187 5.52631003 2.3720107 -2.60546875 3.36328125 C-4.80782513 5.11881419 -4.80782513 5.11881419 -4.703125 7.28125 C-4.69152344 8.03019531 -4.67992187 8.77914062 -4.66796875 9.55078125 C-4.92763809 12.84169273 -5.27343284 14.0286863 -7.6328125 16.40625 C-9.24679842 17.60207843 -10.89391847 18.75476572 -12.57421875 19.85546875 C-14.89533532 21.27743814 -14.89533532 21.27743814 -15.60546875 24.36328125 C-20.22546875 25.02328125 -24.84546875 25.68328125 -29.60546875 26.36328125 C-25.64546875 26.69328125 -21.68546875 27.02328125 -17.60546875 27.36328125 C-18.93880208 30.02994792 -20.27213542 32.69661458 -21.60546875 35.36328125 C-27.28458632 35.65204994 -29.75252566 35.39637068 -34.60546875 32.36328125 C-37.28150542 31.82104493 -39.87687848 31.59451771 -42.60546875 31.36328125 C-42.27546875 30.70328125 -41.94546875 30.04328125 -41.60546875 29.36328125 C-40.94546875 29.36328125 -40.28546875 29.36328125 -39.60546875 29.36328125 C-39.60546875 28.37328125 -39.60546875 27.38328125 -39.60546875 26.36328125 C-37.11872665 24.92862235 -35.29384985 24.31439985 -32.41796875 23.86328125 C-31.02578125 23.61578125 -31.02578125 23.61578125 -29.60546875 23.36328125 C-29.27546875 22.70328125 -28.94546875 22.04328125 -28.60546875 21.36328125 C-26.27299114 21.02401178 -23.93961404 20.69088059 -21.60546875 20.36328125 C-20.94546875 19.70328125 -20.28546875 19.04328125 -19.60546875 18.36328125 C-18.61546875 18.36328125 -17.62546875 18.36328125 -16.60546875 18.36328125 C-16.27546875 17.37328125 -15.94546875 16.38328125 -15.60546875 15.36328125 C-14.61546875 15.36328125 -13.62546875 15.36328125 -12.60546875 15.36328125 C-12.60546875 14.70328125 -12.60546875 14.04328125 -12.60546875 13.36328125 C-11.28546875 13.36328125 -9.96546875 13.36328125 -8.60546875 13.36328125 C-8.54939453 12.33267578 -8.54939453 12.33267578 -8.4921875 11.28125 C-8.42644531 10.38019531 -8.36070313 9.47914062 -8.29296875 8.55078125 C-8.20595703 7.21080078 -8.20595703 7.21080078 -8.1171875 5.84375 C-7.13347197 1.07535791 -4.62903667 -0.01696962 0 0 Z " fill="#4B2316" transform="translate(77.60546875,43.63671875)"/>
<path d="M0 0 C2.29416553 0.06454174 4.5864685 0.20183913 6.875 0.375 C8.13054687 0.46523438 9.38609375 0.55546875 10.6796875 0.6484375 C14 1 14 1 17 2 C17 2.99 17 3.98 17 5 C19.97 5 22.94 5 26 5 C26.33 4.01 26.66 3.02 27 2 C27.87890625 3.79036458 28.7578125 5.58072917 29.63671875 7.37109375 C31.19828979 9.58227924 31.19828979 9.58227924 36 10 C36 13.96 36 17.92 36 22 C35.01 22 34.02 22 33 22 C32.505 20.515 32.505 20.515 32 19 C31.34 18.67 30.68 18.34 30 18 C30 17.34 30 16.68 30 16 C30.66 16 31.32 16 32 16 C31.505 14.515 31.505 14.515 31 13 C28.03 12.505 28.03 12.505 25 12 C25.495 12.5775 25.99 13.155 26.5 13.75 C28 16 28 16 28 20 C27.01 19.67 26.02 19.34 25 19 C25 17.68 25 16.36 25 15 C24.34 15 23.68 15 23 15 C23.33 16.32 23.66 17.64 24 19 C23.01 19 22.02 19 21 19 C20.80083984 18.07767578 20.80083984 18.07767578 20.59765625 17.13671875 C20.42105469 16.32847656 20.24445313 15.52023438 20.0625 14.6875 C19.88847656 13.88699219 19.71445313 13.08648437 19.53515625 12.26171875 C19.00113841 9.854599 19.00113841 9.854599 18 7 C17.01 7 16.02 7 15 7 C15.268125 8.051875 15.53625 9.10375 15.8125 10.1875 C16 14 16 14 13.6875 16.9375 C11 19 11 19 9 19 C8.61936779 16.6739143 8.28730055 14.33944736 8 12 C8.33 11.67 8.66 11.34 9 11 C8.34 10.34 7.68 9.68 7 9 C7.66 9 8.32 9 9 9 C9 8.34 9 7.68 9 7 C7.741875 6.855625 6.48375 6.71125 5.1875 6.5625 C2.57332877 6.26251314 0.52560108 5.84186703 -2 5 C-1.125 1.125 -1.125 1.125 0 0 Z " fill="#7F5636" transform="translate(89,61)"/>
<path d="M0 0 C0.99 0.33 1.98 0.66 3 1 C3.94921875 3.28515625 3.94921875 3.28515625 4.6875 6.0625 C4.93886719 6.98160156 5.19023437 7.90070313 5.44921875 8.84765625 C5.63097656 9.55792969 5.81273437 10.26820312 6 11 C7.45945288 10.91291331 8.91765868 10.80473093 10.375 10.6875 C11.18710937 10.62949219 11.99921875 10.57148437 12.8359375 10.51171875 C15.37921338 10.17009472 15.37921338 10.17009472 17 7 C17.66 8.65 18.32 10.3 19 12 C19.66 12 20.32 12 21 12 C23.42254657 19.26763971 21.89384003 25.2477066 19 32 C18.34 32 17.68 32 17 32 C16.52949219 31.02417969 16.05898438 30.04835938 15.57421875 29.04296875 C14.94563461 27.75765492 14.31671048 26.47250733 13.6875 25.1875 C13.2244043 24.22360352 13.2244043 24.22360352 12.75195312 23.24023438 C11.14624701 19.97811563 9.58629319 17.52263059 7 15 C7 14.01 7 13.02 7 12 C6.01 11.67 5.02 11.34 4 11 C2.83203125 9.00390625 2.83203125 9.00390625 1.8125 6.5625 C1.46832031 5.75941406 1.12414062 4.95632812 0.76953125 4.12890625 C0 2 0 2 0 0 Z " fill="#150909" transform="translate(13,80)"/>
<path d="M0 0 C2.76276177 0.52268466 5.3260876 1.10869587 8 2 C9.05047644 4.31104818 10.05007438 6.64583651 11 9 C11.66 9.66 12.32 10.32 13 11 C13 12.32 13 13.64 13 15 C6.25 16.125 6.25 16.125 4 15 C4 14.01 4 13.02 4 12 C3.09636719 11.96261719 2.19273438 11.92523438 1.26171875 11.88671875 C0.08222656 11.82097656 -1.09726563 11.75523438 -2.3125 11.6875 C-4.07013672 11.60048828 -4.07013672 11.60048828 -5.86328125 11.51171875 C-9.0983686 10.98395232 -10.08684881 10.57619276 -12 8 C-8.11690718 4.35224614 -5.28798182 3.41474367 0 3 C0 2.01 0 1.02 0 0 Z " fill="#C37B55" transform="translate(102,51)"/>
<path d="M0 0 C0.55945313 0.144375 1.11890625 0.28875 1.6953125 0.4375 C2.1903125 1.9225 2.1903125 1.9225 2.6953125 3.4375 C1.94846191 3.42702637 1.20161133 3.41655273 0.43212891 3.40576172 C-2.93844258 3.3642923 -6.3089605 3.33820271 -9.6796875 3.3125 C-10.8553125 3.29574219 -12.0309375 3.27898438 -13.2421875 3.26171875 C-14.36367187 3.25527344 -15.48515625 3.24882813 -16.640625 3.2421875 C-17.67751465 3.23171387 -18.7144043 3.22124023 -19.78271484 3.21044922 C-22.47577373 3.18134974 -22.47577373 3.18134974 -24.3046875 5.4375 C-24.98409217 7.86465206 -24.98409217 7.86465206 -25.4296875 10.5625 C-25.59726563 11.47257812 -25.76484375 12.38265625 -25.9375 13.3203125 C-26.05867188 14.01898438 -26.17984375 14.71765625 -26.3046875 15.4375 C-27.6246875 15.4375 -28.9446875 15.4375 -30.3046875 15.4375 C-30.3046875 16.0975 -30.3046875 16.7575 -30.3046875 17.4375 C-31.2946875 17.7675 -32.2846875 18.0975 -33.3046875 18.4375 C-33.6346875 19.0975 -33.9646875 19.7575 -34.3046875 20.4375 C-38.33024006 23.51586372 -41.31284014 23.73113808 -46.3046875 23.4375 C-46.6346875 24.4275 -46.9646875 25.4175 -47.3046875 26.4375 C-48.6246875 26.1075 -49.9446875 25.7775 -51.3046875 25.4375 C-50.3146875 25.1075 -49.3246875 24.7775 -48.3046875 24.4375 C-47.9746875 23.7775 -47.6446875 23.1175 -47.3046875 22.4375 C-45.6546875 22.4375 -44.0046875 22.4375 -42.3046875 22.4375 C-42.2428125 21.81875 -42.1809375 21.2 -42.1171875 20.5625 C-41.8490625 19.86125 -41.5809375 19.16 -41.3046875 18.4375 C-39.64771371 17.74709426 -37.9791114 17.0844365 -36.3046875 16.4375 C-34.61852968 14.79055515 -32.94898579 13.12623879 -31.3046875 11.4375 C-30.6446875 11.4375 -29.9846875 11.4375 -29.3046875 11.4375 C-29.2634375 10.591875 -29.2221875 9.74625 -29.1796875 8.875 C-25.50206182 -5.57281517 -11.90589516 -2.75634872 0 0 Z " fill="#220C04" transform="translate(95.3046875,41.5625)"/>
<path d="M0 0 C4.08643149 0.868682 8.13745693 1.48508631 12.28125 2.0078125 C17.04554409 2.72245661 20.34862242 3.54380669 23.90625 7.0078125 C26.6225415 11.80659415 27.24140324 15.53364293 26.90625 21.0078125 C27.56625 21.0078125 28.22625 21.0078125 28.90625 21.0078125 C28.41125 22.4928125 28.41125 22.4928125 27.90625 24.0078125 C26.42125 23.5128125 26.42125 23.5128125 24.90625 23.0078125 C24.90625 20.3678125 24.90625 17.7278125 24.90625 15.0078125 C24.24625 15.0078125 23.58625 15.0078125 22.90625 15.0078125 C22.60332031 14.36972656 22.30039063 13.73164063 21.98828125 13.07421875 C21.56933594 12.24792969 21.15039062 11.42164063 20.71875 10.5703125 C20.31269531 9.74660156 19.90664062 8.92289063 19.48828125 8.07421875 C18.07642045 5.83254252 18.07642045 5.83254252 15.65625 5.24609375 C11.29951107 4.86859222 6.94285516 4.66862382 2.57421875 4.484375 C-1.09375 4.0078125 -1.09375 4.0078125 -4.78198242 2.49633789 C-9.19107234 0.79872784 -13.066655 0.61765859 -17.75 0.71484375 C-18.53773804 0.71908859 -19.32547607 0.72333344 -20.13708496 0.72770691 C-22.6230059 0.74433633 -25.10807919 0.78195636 -27.59375 0.8203125 C-29.29165486 0.83537979 -30.98957258 0.84906459 -32.6875 0.86132812 C-36.82323719 0.89418784 -40.9583505 0.94585776 -45.09375 1.0078125 C-45.09375 0.6778125 -45.09375 0.3478125 -45.09375 0.0078125 C-28.92805559 -2.80652601 -16.10028192 -3.45927618 0 0 Z " fill="#422C22" transform="translate(87.09375,15.9921875)"/>
<path d="M0 0 C-0.33 0.66 -0.66 1.32 -1 2 C-4.98866127 2.99716532 -8.0323069 3.0502717 -12 2 C-10.99443694 5.51947072 -9.75754938 7.40006895 -6.9375 9.625 C-4 12 -4 12 -3 15 C-8.61 15 -14.22 15 -20 15 C-19.34 12.03 -18.68 9.06 -18 6 C-21.79303725 7.00193437 -24.71536341 7.81024227 -28 10 C-28.33 9.01 -28.66 8.02 -29 7 C-21.97004684 1.50974839 -21.97004684 1.50974839 -17 1 C-16.13375 0.814375 -15.2675 0.62875 -14.375 0.4375 C-9.58106634 -0.18393585 -4.82693747 -0.07729971 0 0 Z " fill="#7A5A40" transform="translate(105,131)"/>
<path d="M0 0 C0.70125 0.12375 1.4025 0.2475 2.125 0.375 C1.25 7.125 1.25 7.125 0.125 9.375 C0.0533265 11.92657655 0.03191558 14.44972971 0.0625 17 C0.06701172 17.70640625 0.07152344 18.4128125 0.07617188 19.140625 C0.08796125 20.88545275 0.10589676 22.630237 0.125 24.375 C-2.845 24.375 -5.815 24.375 -8.875 24.375 C-9.03786586 21.49770306 -9.15624242 18.62969706 -9.25 15.75 C-9.30027344 14.94175781 -9.35054687 14.13351563 -9.40234375 13.30078125 C-9.48575403 9.88095988 -9.53551081 7.37612265 -7.61376953 4.46337891 C-5.17862188 1.92304129 -3.5385679 0.46155233 0 0 Z " fill="#150807" transform="translate(28.875,121.625)"/>
<path d="M0 0 C2.35694954 0.09031574 4.71153582 0.24688128 7.0625 0.4375 C8.35285156 0.53933594 9.64320312 0.64117187 10.97265625 0.74609375 C12.47119141 0.87177734 12.47119141 0.87177734 14 1 C14 1.66 14 2.32 14 3 C14.66 3 15.32 3 16 3 C16.78397866 12.94781811 16.78397866 12.94781811 13.625 17.1875 C11 19 11 19 9 19 C8.61936779 16.6739143 8.28730055 14.33944736 8 12 C8.33 11.67 8.66 11.34 9 11 C8.34 10.34 7.68 9.68 7 9 C7.66 9 8.32 9 9 9 C9 8.34 9 7.68 9 7 C7.741875 6.855625 6.48375 6.71125 5.1875 6.5625 C2.57332877 6.26251314 0.52560108 5.84186703 -2 5 C-1.125 1.125 -1.125 1.125 0 0 Z " fill="#7A442C" transform="translate(89,61)"/>
<path d="M0 0 C1.98 0 3.96 0 6 0 C6.33 1.32 6.66 2.64 7 4 C6.34 4 5.68 4 5 4 C5 4.66 5 5.32 5 6 C5.99 6.33 6.98 6.66 8 7 C8 7.99 8 8.98 8 10 C8.99 10 9.98 10 11 10 C11.09765625 16.15234375 11.09765625 16.15234375 11 18 C10 19 10 19 7.1875 19.3125 C3.28125291 18.9295346 2.45235854 17.95974307 0 15 C-0.5775 14.4225 -1.155 13.845 -1.75 13.25 C-2.1625 12.8375 -2.575 12.425 -3 12 C-2.67 11.01 -2.34 10.02 -2 9 C-0.68 9 0.64 9 2 9 C2.20140476 5.37471432 1.85776765 3.13498292 0 0 Z " fill="#C2A87F" transform="translate(114,73)"/>
<path d="M0 0 C1.13598633 0.00483398 1.13598633 0.00483398 2.29492188 0.00976562 C3.47344727 0.02233398 3.47344727 0.02233398 4.67578125 0.03515625 C5.47306641 0.03966797 6.27035156 0.04417969 7.09179688 0.04882812 C9.05732382 0.06059775 11.0228121 0.07853277 12.98828125 0.09765625 C11.65494792 2.76432292 10.32161458 5.43098958 8.98828125 8.09765625 C3.30916368 8.38642494 0.84122434 8.13074568 -4.01171875 5.09765625 C-6.68775542 4.55541993 -9.28312848 4.32889271 -12.01171875 4.09765625 C-12.01171875 3.76765625 -12.01171875 3.43765625 -12.01171875 3.09765625 C-10.36171875 3.09765625 -8.71171875 3.09765625 -7.01171875 3.09765625 C-7.01171875 2.43765625 -7.01171875 1.77765625 -7.01171875 1.09765625 C-4.30455633 0.19526878 -2.77395107 -0.02085677 0 0 Z " fill="#623927" transform="translate(47.01171875,70.90234375)"/>
<path d="M0 0 C1.31291016 0.04253906 1.31291016 0.04253906 2.65234375 0.0859375 C3.65394531 0.14007813 4.65554687 0.19421875 5.6875 0.25 C6.88503906 0.30414063 8.08257812 0.35828125 9.31640625 0.4140625 C19.9998896 1.01563508 19.9998896 1.01563508 23.6875 3.25 C20.95882267 3.47262638 18.23058042 3.67852324 15.5 3.875 C14.73107422 3.93945312 13.96214844 4.00390625 13.16992188 4.0703125 C8.80625319 4.36996357 5.67664662 4.34450183 1.6875 2.25 C1.6875 2.91 1.6875 3.57 1.6875 4.25 C0.924375 4.435625 0.16125 4.62125 -0.625 4.8125 C-3.88552313 6.55650074 -4.09407562 8.01279077 -5.29296875 11.37109375 C-6.97221785 14.46580187 -9.69292461 16.06475271 -12.5703125 17.98828125 C-14.45400437 19.14793032 -14.45400437 19.14793032 -15.3125 21.25 C-15.9725 21.25 -16.6325 21.25 -17.3125 21.25 C-16.1981463 17.90693889 -14.66395371 16.78221038 -11.75 15.0625 C-9.38265146 13.49565695 -8.4599945 12.81890737 -7.73828125 10.03515625 C-7.53199901 7.64724164 -7.53199901 7.64724164 -7.578125 5.3359375 C-7.3125 3.25 -7.3125 3.25 -6.06640625 1.4921875 C-3.85259551 -0.075723 -2.69663247 -0.09064311 0 0 Z " fill="#7B422B" transform="translate(79.3125,45.75)"/>
<path d="M0 0 C11.02446483 -0.57798165 11.02446483 -0.57798165 15 3 C15 3.99 15 4.98 15 6 C17.31 6.33 19.62 6.66 22 7 C22.66 8.65 23.32 10.3 24 12 C23.34 12.66 22.68 13.32 22 14 C21.67 12.35 21.34 10.7 21 9 C20.34 9 19.68 9 19 9 C19 9.66 19 10.32 19 11 C17.625 12.625 17.625 12.625 16 14 C15.34 14 14.68 14 14 14 C13.67 12.02 13.34 10.04 13 8 C12.34 8 11.68 8 11 8 C10.67 6.68 10.34 5.36 10 4 C6.96663814 3.77106703 4.02534949 3.63524155 1 4 C-1.12355567 5.82271927 -1.12355567 5.82271927 -2 8 C-1.47731534 5.23723823 -0.89130413 2.6739124 0 0 Z " fill="#965037" transform="translate(33,75)"/>
<path d="M0 0 C0.66 0 1.32 0 2 0 C2 0.99 2 1.98 2 3 C1.01 3.495 1.01 3.495 0 4 C-0.39205568 6.29104269 -0.39205568 6.29104269 -0.5 8.9375 C-0.77862595 13.77862595 -0.77862595 13.77862595 -3 16 C-3 14.35 -3 12.7 -3 11 C-4.918125 11.061875 -4.918125 11.061875 -6.875 11.125 C-9.0546875 11.1953125 -9.0546875 11.1953125 -11 11 C-11.66 10.34 -12.32 9.68 -13 9 C-13 8.01 -13 7.02 -13 6 C-12.01 6 -11.02 6 -10 6 C-9.67 4.68 -9.34 3.36 -9 2 C-7.6078125 2.3403125 -7.6078125 2.3403125 -6.1875 2.6875 C-5.135625 2.790625 -4.08375 2.89375 -3 3 C-1.22809091 1.64555699 -1.22809091 1.64555699 0 0 Z " fill="#A2573F" transform="translate(54,91)"/>
<path d="M0 0 C2.97 0 5.94 0 9 0 C9.33 1.32 9.66 2.64 10 4 C9.67 4.33 9.34 4.66 9 5 C8.95907063 7.33297433 8.95758277 9.66705225 9 12 C9.99 11.67 10.98 11.34 12 11 C12 11.66 12 12.32 12 13 C5.36169795 14.81993899 0.05471287 14.91560466 -6.0625 11.5 C-7.38657554 10.68518428 -8.70358701 9.85814571 -10 9 C-10 8.67 -10 8.34 -10 8 C-7.03 8 -4.06 8 -1 8 C-1 8.99 -1 9.98 -1 11 C-0.401875 11.144375 0.19625 11.28875 0.8125 11.4375 C2.56150404 11.8872439 4.28677023 12.42892341 6 13 C6 9.7 6 6.4 6 3 C3.03 2.505 3.03 2.505 0 2 C0 1.34 0 0.68 0 0 Z " fill="#9C6650" transform="translate(89,68)"/>
<path d="M0 0 C0.33 0.66 0.66 1.32 1 2 C0.33333333 4 -0.33333333 6 -1 8 C-1 9.65 -1 11.3 -1 13 C-5.29 13 -9.58 13 -14 13 C-13.34 11.68 -12.68 10.36 -12 9 C-11.34 9 -10.68 9 -10 9 C-9.67 8.01 -9.34 7.02 -9 6 C-7.01753602 4.96567096 -5.01586684 3.96761608 -3 3 C-1.18445841 1.43897509 -1.18445841 1.43897509 0 0 Z " fill="#8E5452" transform="translate(14,133)"/>
<path d="M0 0 C0.33 1.32 0.66 2.64 1 4 C-5.02818509 8.28670939 -9.71304215 8.474377 -17 8 C-16.15625 6.0390625 -16.15625 6.0390625 -15 4 C-12.5 3.375 -12.5 3.375 -10 3 C-9.34 2.34 -8.68 1.68 -8 1 C-5.29120665 -0.35439668 -2.99066732 -0.06501451 0 0 Z " fill="#663B1E" transform="translate(112,123)"/>
<path d="M0 0 C0.33 1.32 0.66 2.64 1 4 C1.99 4 2.98 4 4 4 C4 5.32 4 6.64 4 8 C3.49984375 7.67257813 2.9996875 7.34515625 2.484375 7.0078125 C-0.91792104 5.6276358 -4.14350651 5.78637162 -7.75 5.875 C-8.79607422 5.88853516 -8.79607422 5.88853516 -9.86328125 5.90234375 C-11.57566958 5.92580112 -13.28788004 5.96166896 -15 6 C-15.33 5.01 -15.66 4.02 -16 3 C-10.9749232 -0.3500512 -5.9145821 -0.11829164 0 0 Z " fill="#743F28" transform="translate(113,102)"/>
<path d="M0 0 C0 0.99 0 1.98 0 3 C-0.99 3 -1.98 3 -3 3 C-3 3.99 -3 4.98 -3 6 C-4.11375 6.61875 -5.2275 7.2375 -6.375 7.875 C-9.31848664 9.78380649 -9.93381698 10.76622909 -10.91015625 14.21484375 C-11.38842835 17.47772232 -11.76405095 20.71115923 -12 24 C-12.99 23.34 -13.98 22.68 -15 22 C-15.1875 19.375 -15.1875 19.375 -15 17 C-15.33 17 -15.66 17 -16 17 C-15.67 14.03 -15.34 11.06 -15 8 C-13.02 8 -11.04 8 -9 8 C-9 7.34 -9 6.68 -9 6 C-8.34 6 -7.68 6 -7 6 C-6.67 4.35 -6.34 2.7 -6 1 C-4.7934375 1.0309375 -4.7934375 1.0309375 -3.5625 1.0625 C-1.06645115 1.29633621 -1.06645115 1.29633621 0 0 Z " fill="#160605" transform="translate(41,67)"/>
<path d="M0 0 C5.8322827 -0.48602356 10.28409528 0.34798702 15 4 C18.65201298 8.71590472 19.48602356 13.1677173 19 19 C19.66 19 20.32 19 21 19 C20.67 19.99 20.34 20.98 20 22 C19.01 21.67 18.02 21.34 17 21 C17 18.36 17 15.72 17 13 C16.34 13 15.68 13 15 13 C14.75507812 12.37351562 14.51015625 11.74703125 14.2578125 11.1015625 C11.9759734 5.95227647 11.9759734 5.95227647 7.44140625 2.95703125 C4.9495884 2.48694363 2.53017626 2.15230187 0 2 C0 1.34 0 0.68 0 0 Z " fill="#5F432D" transform="translate(95,18)"/>
<path d="M0 0 C0.99 0 1.98 0 3 0 C4.82421875 1.93359375 4.82421875 1.93359375 6.6875 4.4375 C7.62142578 5.67306641 7.62142578 5.67306641 8.57421875 6.93359375 C10 9 10 9 10 10 C5.38 10 0.76 10 -4 10 C-3.34 7.69 -2.68 5.38 -2 3 C-1.34 3 -0.68 3 0 3 C0 2.01 0 1.02 0 0 Z " fill="#0B0403" transform="translate(89,136)"/>
<path d="M0 0 C1.32 0 2.64 0 4 0 C4 1.32 4 2.64 4 4 C4.66 4 5.32 4 6 4 C7.65362053 7.73862033 9.00424757 11.01699027 10 15 C6.37 14.34 2.74 13.68 -1 13 C-0.10429689 8.52148447 0.25000973 7.22824944 3 4 C2.01 3.67 1.02 3.34 0 3 C0 2.01 0 1.02 0 0 Z " fill="#742F17" transform="translate(40,79)"/>
<path d="M0 0 C2.64 0 5.28 0 8 0 C9.13657056 5.15828178 9.13657056 5.15828178 9 8 C6.6875 11 6.6875 11 4 13 C3.34 13 2.68 13 2 13 C1.61936779 10.6739143 1.28730055 8.33944736 1 6 C1.33 5.67 1.66 5.34 2 5 C1.34 4.34 0.68 3.68 0 3 C0.66 3 1.32 3 2 3 C2 2.34 2 1.68 2 1 C1.34 0.67 0.68 0.34 0 0 Z " fill="#804F3A" transform="translate(96,67)"/>
<path d="M0 0 C0.66 1.32 1.32 2.64 2 4 C5.3 3.67 8.6 3.34 12 3 C12 3.66 12 4.32 12 5 C12.66 5 13.32 5 14 5 C13.67 5.99 13.34 6.98 13 8 C12.34 8 11.68 8 11 8 C11 8.66 11 9.32 11 10 C5.04569021 10.71451717 5.04569021 10.71451717 2.19921875 8.76953125 C0.61412597 7.237401 -0.77935045 5.8376812 -2 4 C-2 3.01 -2 2.02 -2 1 C-1.34 0.67 -0.68 0.34 0 0 Z " fill="#753B1F" transform="translate(102,90)"/>
<path d="M0 0 C0.99 0 1.98 0 3 0 C3 1.32 3 2.64 3 4 C3.99 4 4.98 4 6 4 C5.5359375 4.86625 5.5359375 4.86625 5.0625 5.75 C4.07416636 7.84294184 3.4831387 9.74535275 3 12 C5.97 12.495 5.97 12.495 9 13 C8.34 14.32 7.68 15.64 7 17 C7 16.34 7 15.68 7 15 C5.68 15 4.36 15 3 15 C3.33 15.99 3.66 16.98 4 18 C3.34 18.99 2.68 19.98 2 21 C2 20.01 2 19.02 2 18 C1.34 18 0.68 18 0 18 C-0.87460154 14.50159382 -0.85970794 12.43883174 0 9 C0.06548492 7.41788427 0.08578381 5.83329919 0.0625 4.25 C0.05347656 3.45078125 0.04445312 2.6515625 0.03515625 1.828125 C0.02355469 1.22484375 0.01195312 0.6215625 0 0 Z " fill="#9D513E" transform="translate(36,80)"/>
<path d="M0 0 C1.5 1.375 1.5 1.375 3 3 C3 3.66 3 4.32 3 5 C3.66 5 4.32 5 5 5 C7.42254657 12.26763971 5.89384003 18.2477066 3 25 C2.34 25 1.68 25 1 25 C0.67 24.01 0.34 23.02 0 22 C0.66 22 1.32 22 2 22 C2.22166797 16.45830068 1.83598877 12.2784677 0 7 C-0.07522969 4.66787973 -0.09325876 2.3314689 0 0 Z " fill="#33150F" transform="translate(29,87)"/>
<path d="M0 0 C3 3.75 3 3.75 3 6 C4.32 5.67 5.64 5.34 7 5 C6.68853528 6.89600369 6.37578283 8.79179587 6.0625 10.6875 C5.88847656 11.74324219 5.71445312 12.79898438 5.53515625 13.88671875 C5.19997423 15.83664628 4.81882705 17.77983141 4.37109375 19.70703125 C3.79337599 22.15300925 3.79337599 22.15300925 5 25 C4.34 25 3.68 25 3 25 C0.16860949 20.57595232 0.6459471 16.08006077 1.5 11.0625 C1.7475 10.0415625 1.7475 10.0415625 2 9 C0.68 8.67 -0.64 8.34 -2 8 C-1.67 7.67 -1.34 7.34 -1 7 C-0.63239269 4.67182036 -0.29758419 2.3381615 0 0 Z " fill="#906458" transform="translate(29,113)"/>
<path d="M0 0 C1.29035156 0.0309375 2.58070312 0.061875 3.91015625 0.09375 C11.30709323 0.38992365 16.70281595 1.01606723 23 5 C22.67 6.32 22.34 7.64 22 9 C20.56770833 7.73046875 19.13541667 6.4609375 17.703125 5.19140625 C10.82219354 0.37791062 -3.86822122 1.00872945 -12 2 C-14.41292805 4.41292805 -14.23427014 5.14117362 -14.375 8.4375 C-14.74176186 12.74176186 -14.74176186 12.74176186 -17.0625 15.0625 C-17.701875 15.371875 -18.34125 15.68125 -19 16 C-19.66 15.67 -20.32 15.34 -21 15 C-20.360625 14.690625 -19.72125 14.38125 -19.0625 14.0625 C-16.25131311 11.25131311 -16.48045585 9.01608878 -16.37109375 5.15625 C-16 3 -16 3 -14.83203125 1.234375 C-10.727005 -1.5314849 -4.74284393 -0.19741286 0 0 Z " fill="#623221" transform="translate(87,45)"/>
<path d="M0 0 C0.99 0.33 1.98 0.66 3 1 C1.625 3 1.625 3 0 5 C-0.66 5 -1.32 5 -2 5 C-2 5.66 -2 6.32 -2 7 C-7.3212615 8.08318169 -12.63486869 9.152874 -18 10 C-18 10.66 -18 11.32 -18 12 C-19.32 11.67 -20.64 11.34 -22 11 C-21.34 11 -20.68 11 -20 11 C-20 10.01 -20 9.02 -20 8 C-17.5132579 6.5653411 -15.6883811 5.9511186 -12.8125 5.5 C-11.4203125 5.2525 -11.4203125 5.2525 -10 5 C-9.67 4.34 -9.34 3.68 -9 3 C-6.66752239 2.66073053 -4.33414529 2.32759934 -2 2 C-1.34 1.34 -0.68 0.68 0 0 Z " fill="#3E221B" transform="translate(58,62)"/>
<path d="M0 0 C6.625 -0.25 6.625 -0.25 10 2 C10.29296875 4.8203125 10.29296875 4.8203125 10.1875 8.125 C10.16042969 9.22070312 10.13335937 10.31640625 10.10546875 11.4453125 C10.07066406 12.28835937 10.03585938 13.13140625 10 14 C7.03 13.67 4.06 13.34 1 13 C0.67 11.35 0.34 9.7 0 8 C2.64 8 5.28 8 8 8 C7.67 6.35 7.34 4.7 7 3 C4.69 2.34 2.38 1.68 0 1 C0 0.67 0 0.34 0 0 Z " fill="#A57C56" transform="translate(107,108)"/>
<path d="M0 0 C0.99 0 1.98 0 3 0 C3.33 1.98 3.66 3.96 4 6 C1.69 5.67 -0.62 5.34 -3 5 C-2.34 6.32 -1.68 7.64 -1 9 C-3.95123146 9.35133708 -6.1497901 9.52850886 -8.734375 7.921875 C-10.22168117 6.6895356 -11.61785957 5.34923232 -13 4 C-13 3.67 -13 3.34 -13 3 C-6.565 2.505 -6.565 2.505 0 2 C0 1.34 0 0.68 0 0 Z " fill="#BC7358" transform="translate(101,79)"/>
<path d="M0 0 C0.99 0 1.98 0 3 0 C5.49505962 2.49505962 5.35948376 3.67328888 5.625 7.125 C5.69976562 8.03507812 5.77453125 8.94515625 5.8515625 9.8828125 C5.90054688 10.58148438 5.94953125 11.28015625 6 12 C6.99 12 7.98 12 9 12 C8.67 10.68 8.34 9.36 8 8 C8.66 8 9.32 8 10 8 C10.12375 8.61875 10.2475 9.2375 10.375 9.875 C10.87197356 12.19120832 10.87197356 12.19120832 13 14 C6.25 16 6.25 16 4 16 C0 4.28571429 0 4.28571429 0 0 Z " fill="#AA785A" transform="translate(104,68)"/>
<path d="M0 0 C3.96 0 7.92 0 12 0 C12 2.97 12 5.94 12 9 C8 8 8 8 5 7 C5 6.01 5 5.02 5 4 C3.35 3.67 1.7 3.34 0 3 C0 2.01 0 1.02 0 0 Z " fill="#723C23" transform="translate(83,72)"/>
<path d="M0 0 C0.33 0 0.66 0 1 0 C1.66 2.97 2.32 5.94 3 9 C3.99 9 4.98 9 6 9 C6.125 11.875 6.125 11.875 6 15 C5.34 15.66 4.68 16.32 4 17 C2.68 17 1.36 17 0 17 C-1.07957377 13.76127868 -1.13326784 11.33971795 -1.125 7.9375 C-1.12757812 6.87402344 -1.13015625 5.81054688 -1.1328125 4.71484375 C-1 2 -1 2 0 0 Z " fill="#734641" transform="translate(29,129)"/>
<path d="M0 0 C0.33 0 0.66 0 1 0 C1.125 7.75 1.125 7.75 0 10 C-1.32 10 -2.64 10 -4 10 C-4 10.66 -4 11.32 -4 12 C-4.99 12.33 -5.98 12.66 -7 13 C-7.33 13.66 -7.66 14.32 -8 15 C-12.02555256 18.07836372 -15.00815264 18.29363808 -20 18 C-20.33 18.99 -20.66 19.98 -21 21 C-22.32 20.67 -23.64 20.34 -25 20 C-24.01 19.67 -23.02 19.34 -22 19 C-21.67 18.34 -21.34 17.68 -21 17 C-19.35 17 -17.7 17 -16 17 C-15.67 15.68 -15.34 14.36 -15 13 C-14.26136719 13.05285156 -13.52273437 13.10570312 -12.76171875 13.16015625 C-8.13994773 12.89213275 -5.14347796 10.25650189 -2 7 C-0.81436807 4.57550369 -0.43201959 2.70012242 0 0 Z " fill="#2F170F" transform="translate(69,47)"/>
<path d="M0 0 C1.21816406 0.03480469 1.21816406 0.03480469 2.4609375 0.0703125 C3.68683594 0.09738281 3.68683594 0.09738281 4.9375 0.125 C5.87722656 0.15980469 5.87722656 0.15980469 6.8359375 0.1953125 C5.8459375 0.5253125 4.8559375 0.8553125 3.8359375 1.1953125 C4.1659375 2.1853125 4.4959375 3.1753125 4.8359375 4.1953125 C5.4959375 4.5253125 6.1559375 4.8553125 6.8359375 5.1953125 C6.5059375 5.8553125 6.1759375 6.5153125 5.8359375 7.1953125 C4.8459375 6.8653125 3.8559375 6.5353125 2.8359375 6.1953125 C2.8359375 4.8753125 2.8359375 3.5553125 2.8359375 2.1953125 C1.8459375 2.1953125 0.8559375 2.1953125 -0.1640625 2.1953125 C0.1659375 6.1553125 0.4959375 10.1153125 0.8359375 14.1953125 C-2.1640625 13.1953125 -2.1640625 13.1953125 -3.3515625 11.0078125 C-4.25203352 7.89079744 -4.45103372 5.42373878 -4.1640625 2.1953125 C-2.1640625 0.1953125 -2.1640625 0.1953125 0 0 Z " fill="#913825" transform="translate(36.1640625,77.8046875)"/>
<path d="M0 0 C0.33 1.32 0.66 2.64 1 4 C1.69867188 3.77183594 2.39734375 3.54367188 3.1171875 3.30859375 C4.02726562 3.02113281 4.93734375 2.73367187 5.875 2.4375 C6.77992187 2.14746094 7.68484375 1.85742188 8.6171875 1.55859375 C11 1 11 1 13 2 C13.4140625 5.16015625 13.4140625 5.16015625 13.625 9.0625 C13.69976562 10.35285156 13.77453125 11.64320312 13.8515625 12.97265625 C13.90054688 13.97167969 13.94953125 14.97070312 14 16 C12.68 16.33 11.36 16.66 10 17 C8.85052105 13.44706507 8.9131063 12.20023331 10.4375 8.6875 C10.953125 7.800625 11.46875 6.91375 12 6 C11.34 6 10.68 6 10 6 C10 5.34 10 4.68 10 4 C6.7 4.33 3.4 4.66 0 5 C0 3.35 0 1.7 0 0 Z " fill="#965431" transform="translate(104,89)"/>
<path d="M0 0 C0.66 0.33 1.32 0.66 2 1 C1.21625 1.763125 0.4325 2.52625 -0.375 3.3125 C-3.07257717 5.90891805 -3.07257717 5.90891805 -5 9 C-8.375 10.125 -8.375 10.125 -12 11 C-13.33360813 11.3322322 -14.66701281 11.66528515 -16 12 C-11.59194113 6.08392099 -7.05663066 2.4368221 0 0 Z " fill="#473729" transform="translate(39,17)"/>
<path d="M0 0 C0 0.99 0 1.98 0 3 C0.36866993 6.83416725 0.85812918 9.71058353 2.5625 13.1875 C4.90970212 18.15536467 4.23772426 23.63799718 4 29 C3.34 29.33 2.68 29.66 2 30 C2 25.38 2 20.76 2 16 C1.34 16 0.68 16 0 16 C-2.04240961 13.65501119 -2.98494992 11.87290452 -3.0390625 8.734375 C-2.45129004 2.45129004 -2.45129004 2.45129004 0 0 Z " fill="#7D4636" transform="translate(32,76)"/>
<path d="M0 0 C-0.42269769 3.41943506 -0.91991217 6.72174346 -2 10 C-4.625 11.625 -4.625 11.625 -7 12 C-5.68197635 8.35008834 -4.40785992 6.2104799 -2 3 C-6.62 3 -11.24 3 -16 3 C-12.16061076 -0.83938924 -5.1929061 -0.12982265 0 0 Z " fill="#735249" transform="translate(62,68)"/>
<path d="M0 0 C0.639375 0.639375 1.27875 1.27875 1.9375 1.9375 C2.2675 0.9475 2.5975 -0.0425 2.9375 -1.0625 C2.9375 0.2575 2.9375 1.5775 2.9375 2.9375 C-3.8125 4.0625 -3.8125 4.0625 -6.0625 2.9375 C-6.0625 1.9475 -6.0625 0.9575 -6.0625 -0.0625 C-10.3525 -0.3925 -14.6425 -0.7225 -19.0625 -1.0625 C-19.0625 -1.3925 -19.0625 -1.7225 -19.0625 -2.0625 C-12.34805512 -3.34824476 -5.86551024 -3.95024159 0 0 Z " fill="#B36F45" transform="translate(112.0625,63.0625)"/>
<path d="M0 0 C0.33 0.99 0.66 1.98 1 3 C0.01 3 -0.98 3 -2 3 C-2 3.99 -2 4.98 -2 6 C-2.66 6 -3.32 6 -4 6 C-4 5.34 -4 4.68 -4 4 C-7.79303725 5.00193437 -10.71536341 5.81024227 -14 8 C-14.33 7.01 -14.66 6.02 -15 5 C-6.02586207 -2.00862069 -6.02586207 -2.00862069 0 0 Z " fill="#602E1A" transform="translate(91,133)"/>
<path d="M0 0 C2.64 0.33 5.28 0.66 8 1 C8 3.97 8 6.94 8 10 C2.25 6.25 2.25 6.25 0 4 C0 2.68 0 1.36 0 0 Z " fill="#AFB598" transform="translate(93,133)"/>
<path d="M0 0 C0.66 0.33 1.32 0.66 2 1 C1.52269162 2.4589426 1.04308958 3.91713496 0.5625 5.375 C0.29566406 6.18710938 0.02882813 6.99921875 -0.24609375 7.8359375 C-1 10 -1 10 -2 12 C-1.60061233 14.09821215 -1.60061233 14.09821215 -1 16 C-1.99 16.33 -2.98 16.66 -4 17 C-4.69710731 15.71349294 -5.38242876 14.42059335 -6.0625 13.125 C-6.44535156 12.40570313 -6.82820313 11.68640625 -7.22265625 10.9453125 C-7.60744141 9.98238281 -7.60744141 9.98238281 -8 9 C-7.67 8.34 -7.34 7.68 -7 7 C-6.67 7.99 -6.34 8.98 -6 10 C-5.34 10 -4.68 10 -4 10 C-3.8453125 9.195625 -3.8453125 9.195625 -3.6875 8.375 C-2.81907303 5.37497956 -1.44379704 2.7620465 0 0 Z " fill="#9B6143" transform="translate(36,102)"/>
<path d="M0 0 C0.763125 0.226875 1.52625 0.45375 2.3125 0.6875 C2.3125 1.3475 2.3125 2.0075 2.3125 2.6875 C1.549375 2.873125 0.78625 3.05875 0 3.25 C-3.26052313 4.99400074 -3.46907562 6.45029077 -4.66796875 9.80859375 C-6.34721785 12.90330187 -9.06792461 14.50225271 -11.9453125 16.42578125 C-13.82900437 17.58543032 -13.82900437 17.58543032 -14.6875 19.6875 C-15.3475 19.6875 -16.0075 19.6875 -16.6875 19.6875 C-15.27444396 16.23254098 -13.75414008 14.84561998 -10.625 12.875 C-7.05150512 10.3479132 -7.05150512 10.3479132 -5.875 6 C-5.7821875 4.3603125 -5.7821875 4.3603125 -5.6875 2.6875 C-3.91017692 -0.15621693 -3.36490325 -0.39126782 0 0 Z " fill="#814732" transform="translate(78.6875,47.3125)"/>
<path d="M0 0 C1.485 0.99 1.485 0.99 3 2 C3.328125 4.27734375 3.328125 4.27734375 3.25 6.9375 C3.23453125 7.81277344 3.2190625 8.68804687 3.203125 9.58984375 C3 12 3 12 2 15 C1.01 15 0.02 15 -1 15 C-1.02685412 12.68756208 -1.04632841 10.3750373 -1.0625 8.0625 C-1.07410156 6.77472656 -1.08570312 5.48695313 -1.09765625 4.16015625 C-1 1 -1 1 0 0 Z " fill="#170101" transform="translate(23,131)"/>
<path d="M0 0 C0.33 0.66 0.66 1.32 1 2 C1.825 2.309375 2.65 2.61875 3.5 2.9375 C4.7375 3.4634375 4.7375 3.4634375 6 4 C6.33 4.99 6.66 5.98 7 7 C9.01508358 7.73323796 9.01508358 7.73323796 11 8 C9.68 8 8.36 8 7 8 C7 11.63 7 15.26 7 19 C6.67 19 6.34 19 6 19 C6 14.71 6 10.42 6 6 C2.7 6 -0.6 6 -4 6 C-3.67 5.01 -3.34 4.02 -3 3 C-2.01 3 -1.02 3 0 3 C0 2.01 0 1.02 0 0 Z " fill="#A8774B" transform="translate(111,85)"/>
<path d="M0 0 C0 0.99 0 1.98 0 3 C-0.97839844 3.14695312 -0.97839844 3.14695312 -1.9765625 3.296875 C-7.63431108 4.26486738 -11.48422039 5.43491083 -16 9 C-12.70723041 0.91774738 -8.14875502 -0.79889755 0 0 Z " fill="#1F130A" transform="translate(50,17)"/>
<path d="M0 0 C0 0.33 0 0.66 0 1 C-1.98 1 -3.96 1 -6 1 C-5.505 1.5775 -5.01 2.155 -4.5 2.75 C-3 5 -3 5 -3 9 C-3.99 8.67 -4.98 8.34 -6 8 C-6 6.68 -6 5.36 -6 4 C-6.66 4 -7.32 4 -8 4 C-7.67 5.32 -7.34 6.64 -7 8 C-7.99 8 -8.98 8 -10 8 C-10.33 5.69 -10.66 3.38 -11 1 C-7.32589215 -0.17571451 -3.83070817 -0.07366746 0 0 Z " fill="#906446" transform="translate(120,72)"/>
<path d="M0 0 C2.0625 0.4375 2.0625 0.4375 4 1 C3.01 1 2.02 1 1 1 C1 1.99 1 2.98 1 4 C0.37351562 4.19335938 -0.25296875 4.38671875 -0.8984375 4.5859375 C-1.71570313 4.84632812 -2.53296875 5.10671875 -3.375 5.375 C-4.18710938 5.63023438 -4.99921875 5.88546875 -5.8359375 6.1484375 C-8.16459185 6.89854283 -8.16459185 6.89854283 -10 9 C-9.67 9.66 -9.34 10.32 -9 11 C-11.64 11 -14.28 11 -17 11 C-13.94616717 7.59124229 -10.93406947 5.76535082 -6.8125 3.8125 C-3.16366937 2.27239635 -3.16366937 2.27239635 0 0 Z " fill="#AF6D47" transform="translate(101,50)"/>
<path d="M0 0 C1.2065625 0.0309375 1.2065625 0.0309375 2.4375 0.0625 C2.4375 0.7225 2.4375 1.3825 2.4375 2.0625 C3.3965625 2.4028125 3.3965625 2.4028125 4.375 2.75 C6.4375 4.0625 6.4375 4.0625 7.1875 6.6875 C7.31125 7.863125 7.31125 7.863125 7.4375 9.0625 C6.4475 8.7325 5.4575 8.4025 4.4375 8.0625 C4.4375 7.4025 4.4375 6.7425 4.4375 6.0625 C3.48875 5.98 2.54 5.8975 1.5625 5.8125 C-1.5625 5.0625 -1.5625 5.0625 -2.9375 3 C-3.14375 2.360625 -3.35 1.72125 -3.5625 1.0625 C-2.5625 0.0625 -2.5625 0.0625 0 0 Z " fill="#CA9464" transform="translate(106.5625,55.9375)"/>
<path d="M0 0 C0.33 1.32 0.66 2.64 1 4 C0.01 4.495 0.01 4.495 -1 5 C-1 4.34 -1 3.68 -1 3 C-1.66 3 -2.32 3 -3 3 C-3 3.66 -3 4.32 -3 5 C-5.97 5 -8.94 5 -12 5 C-7.81374099 0.67419902 -6.05150555 -0.13155447 0 0 Z " fill="#7A4120" transform="translate(112,123)"/>
<path d="M0 0 C3.63 0 7.26 0 11 0 C10 3 10 3 8 4 C6.29297265 4.06996014 4.58331997 4.08440154 2.875 4.0625 C1.96492188 4.05347656 1.05484375 4.04445313 0.1171875 4.03515625 C-0.58148438 4.02355469 -1.28015625 4.01195313 -2 4 C-2 3.34 -2 2.68 -2 2 C-1.34 2 -0.68 2 0 2 C0 1.34 0 0.68 0 0 Z " fill="#4A2D24" transform="translate(46,72)"/>
<path d="M0 0 C2.64 0 5.28 0 8 0 C8 2.31 8 4.62 8 7 C5.25851328 6.62952882 3.41406801 6.31412056 1.1875 4.625 C0 3 0 3 0 0 Z " fill="#E2B187" transform="translate(111,82)"/>
<path d="M0 0 C0 0.99 0 1.98 0 3 C-5.8685408 4.14819277 -11.0885256 3.77313045 -17 3 C-17 2.34 -17 1.68 -17 1 C-14.91835982 0.63601378 -12.83459438 0.28416713 -10.75 -0.0625 C-9.00976562 -0.35833984 -9.00976562 -0.35833984 -7.234375 -0.66015625 C-4.37477376 -0.9606216 -2.66674071 -0.9439206 0 0 Z " fill="#AA6D57" transform="translate(80,68)"/>
<path d="M0 0 C3.63 0 7.26 0 11 0 C10.67 1.32 10.34 2.64 10 4 C7.03 4 4.06 4 1 4 C0.67 2.68 0.34 1.36 0 0 Z " fill="#C67A64" transform="translate(41,97)"/>
<path d="M0 0 C0.66 0 1.32 0 2 0 C1.67 5.61 1.34 11.22 1 17 C-0.65 17 -2.3 17 -4 17 C-3.68160156 16.45601562 -3.36320313 15.91203125 -3.03515625 15.3515625 C-1.82649783 12.60585546 -1.62669531 10.3618707 -1.4375 7.375 C-1.09722222 2.19444444 -1.09722222 2.19444444 0 0 Z " fill="#502126" transform="translate(19,129)"/>
<path d="M0 0 C0.99 0 1.98 0 3 0 C3.66 1.32 4.32 2.64 5 4 C3.68 4.33 2.36 4.66 1 5 C0.67 6.32 0.34 7.64 0 9 C-1.32 9.33 -2.64 9.66 -4 10 C-3.34 7.69 -2.68 5.38 -2 3 C-1.34 3 -0.68 3 0 3 C0 2.01 0 1.02 0 0 Z " fill="#170502" transform="translate(89,136)"/>
<path d="M0 0 C1.65 0.33 3.3 0.66 5 1 C5 3.97 5 6.94 5 10 C4.01 10 3.02 10 2 10 C1.67 9.01 1.34 8.02 1 7 C0.34 6.67 -0.32 6.34 -1 6 C-1 5.34 -1 4.68 -1 4 C-0.34 4 0.32 4 1 4 C0.67 2.68 0.34 1.36 0 0 Z " fill="#9A7F5A" transform="translate(120,73)"/>
<path d="M0 0 C0.33 0 0.66 0 1 0 C1.125 6.75 1.125 6.75 0 9 C-2.625 10.75 -2.625 10.75 -6 12 C-9.875 11.1875 -9.875 11.1875 -13 10 C-13 9.34 -13 8.68 -13 8 C-12.07767578 8.01740234 -12.07767578 8.01740234 -11.13671875 8.03515625 C-9.92435547 8.04869141 -9.92435547 8.04869141 -8.6875 8.0625 C-7.88699219 8.07410156 -7.08648437 8.08570312 -6.26171875 8.09765625 C-3.83138666 8.09657855 -3.83138666 8.09657855 -1 7 C-0.67 4.69 -0.34 2.38 0 0 Z " fill="#884E3C" transform="translate(61,71)"/>
<path d="M0 0 C0.99 0 1.98 0 3 0 C3 1.32 3 2.64 3 4 C3.99 4 4.98 4 6 4 C5.5359375 4.8971875 5.5359375 4.8971875 5.0625 5.8125 C3.89790296 8.08956772 3.89790296 8.08956772 3 11 C2.34 11 1.68 11 1 11 C-0.20272819 8.59454362 -0.10071472 7.05003047 -0.0625 4.375 C-0.05347656 3.55773437 -0.04445312 2.74046875 -0.03515625 1.8984375 C-0.02355469 1.27195312 -0.01195312 0.64546875 0 0 Z " fill="#A24B32" transform="translate(36,80)"/>
<path d="M0 0 C4.62 0 9.24 0 14 0 C14 0.99 14 1.98 14 3 C12.04174127 3.02694851 10.08337774 3.04637218 8.125 3.0625 C7.03445312 3.07410156 5.94390625 3.08570312 4.8203125 3.09765625 C2 3 2 3 0 2 C0 1.34 0 0.68 0 0 Z " fill="#582812" transform="translate(89,63)"/>
<path d="M0 0 C0.33 0 0.66 0 1 0 C0.98839844 1.04800781 0.97679687 2.09601562 0.96484375 3.17578125 C0.95546345 4.55468572 0.9463635 5.93359211 0.9375 7.3125 C0.92912109 8.00279297 0.92074219 8.69308594 0.91210938 9.40429688 C0.89692094 12.5483025 0.99806673 14.99420019 2 18 C1.34 18.66 0.68 19.32 0 20 C-2.05701803 16.6042877 -2.26969117 13.9382341 -2.25 10 C-2.25515625 8.96875 -2.2603125 7.9375 -2.265625 6.875 C-2.00499165 4.05402722 -1.45296344 2.39854282 0 0 Z " fill="#2A2115" transform="translate(10,51)"/>
<path d="M0 0 C0.66 1.32 1.32 2.64 2 4 C4.64 4 7.28 4 10 4 C9.01 5.485 9.01 5.485 8 7 C1.97091723 7.65771812 1.97091723 7.65771812 -0.9375 5.6875 C-2 4 -2 4 -2 1 C-1.34 0.67 -0.68 0.34 0 0 Z " fill="#6E2E16" transform="translate(102,90)"/>
<path d="M0 0 C6.75 0.75 6.75 0.75 9 3 C12.58343976 3.16677282 12.58343976 3.16677282 16 3 C16 3.66 16 4.32 16 5 C10.10304872 6.70701221 5.58011183 4.95193635 0 3 C0 2.01 0 1.02 0 0 Z " fill="#B56642" transform="translate(85,84)"/>
<path d="M0 0 C-3.01490557 1.00496852 -5.04181692 1.10335303 -8.1875 1.0625 C-9.08855469 1.05347656 -9.98960938 1.04445313 -10.91796875 1.03515625 C-11.60503906 1.02355469 -12.29210938 1.01195313 -13 1 C-12.01 3.31 -11.02 5.62 -10 8 C-11.65 9.32 -13.3 10.64 -15 12 C-15.02687279 10.18757948 -15.04633715 8.37504767 -15.0625 6.5625 C-15.07410156 5.55316406 -15.08570313 4.54382813 -15.09765625 3.50390625 C-15 1 -15 1 -14 0 C-12.40366983 -0.26169347 -10.79670875 -0.46007377 -9.1875 -0.625 C-8.31480469 -0.72039062 -7.44210938 -0.81578125 -6.54296875 -0.9140625 C-4.11299888 -0.9961813 -2.30646472 -0.7204342 0 0 Z " fill="#9A5F50" transform="translate(76,68)"/>
<path d="M0 0 C1.19799449 4.14659373 0.8896192 7.99369047 0.5625 12.25 C0.48418945 13.36761719 0.48418945 13.36761719 0.40429688 14.5078125 C0.2751783 16.33894861 0.13834886 18.16953813 0 20 C-0.66 20 -1.32 20 -2 20 C-2.05379226 17.04142591 -2.09357093 14.08382279 -2.125 11.125 C-2.14175781 10.28324219 -2.15851562 9.44148437 -2.17578125 8.57421875 C-2.18222656 7.76855469 -2.18867188 6.96289062 -2.1953125 6.1328125 C-2.21102295 5.01737061 -2.21102295 5.01737061 -2.22705078 3.87939453 C-2 2 -2 2 0 0 Z " fill="#320E13" transform="translate(22,126)"/>
<path d="M0 0 C2.64 0 5.28 0 8 0 C8 1.98 8 3.96 8 6 C5.69 5.67 3.38 5.34 1 5 C0.67 3.35 0.34 1.7 0 0 Z " fill="#A4663C" transform="translate(107,116)"/>
<path d="M0 0 C3.3 0 6.6 0 10 0 C10 0.99 10 1.98 10 3 C9.07767578 3.03867188 9.07767578 3.03867188 8.13671875 3.078125 C3.00745409 3.2814648 3.00745409 3.2814648 -1.0625 6.0625 C-1.371875 6.701875 -1.68125 7.34125 -2 8 C-1.47731534 5.23723823 -0.89130413 2.6739124 0 0 Z " fill="#9A594E" transform="translate(33,75)"/>
<path d="M0 0 C2.625 -0.1875 2.625 -0.1875 5 0 C5.33 1.98 5.66 3.96 6 6 C2.04 5.67 -1.92 5.34 -6 5 C-4.68 4.34 -3.36 3.68 -2 3 C-1.34 2.01 -0.68 1.02 0 0 Z " fill="#D18259" transform="translate(99,55)"/>
<path d="M0 0 C0.99 0.33 1.98 0.66 3 1 C3 1.66 3 2.32 3 3 C3.99 3.33 4.98 3.66 6 4 C6 6.31 6 8.62 6 11 C6.66 11 7.32 11 8 11 C7.67 11.99 7.34 12.98 7 14 C6.01 13.67 5.02 13.34 4 13 C4 10.36 4 7.72 4 5 C3.34 5 2.68 5 2 5 C1.34 3.35 0.68 1.7 0 0 Z " fill="#423521" transform="translate(108,26)"/>
<path d="M0 0 C1.98 0 3.96 0 6 0 C6.33 1.32 6.66 2.64 7 4 C6.34 4 5.68 4 5 4 C5 4.66 5 5.32 5 6 C5.66 6.33 6.32 6.66 7 7 C6.01 7 5.02 7 4 7 C3.67 7.66 3.34 8.32 3 9 C2 6 1 3 0 0 Z " fill="#B6906B" transform="translate(114,73)"/>
<path d="M0 0 C2.9375 0.375 2.9375 0.375 6 1 C6.33 1.66 6.66 2.32 7 3 C9.52733235 3.65555119 9.52733235 3.65555119 12 4 C11.67 4.99 11.34 5.98 11 7 C9.3489597 6.60446947 7.7041485 6.18286103 6.0625 5.75 C5.14597656 5.51796875 4.22945313 5.2859375 3.28515625 5.046875 C1 4 1 4 0.18359375 1.890625 C0.12300781 1.26671875 0.06242187 0.6428125 0 0 Z " fill="#4C3D19" transform="translate(113,67)"/>
<path d="M0 0 C0.33 0 0.66 0 1 0 C1.22245393 1.60226955 1.42746669 3.20696767 1.625 4.8125 C1.74101563 5.70582031 1.85703125 6.59914063 1.9765625 7.51953125 C2 10 2 10 0 13 C-0.39013716 14.9896995 -0.73202649 16.99019869 -1 19 C-1.66 19 -2.32 19 -3 19 C-3.33 16.69 -3.66 14.38 -4 12 C-3.01 11.34 -2.02 10.68 -1 10 C-0.41810734 7.57478506 -0.41810734 7.57478506 -0.3125 4.875 C-0.21388672 3.50988281 -0.21388672 3.50988281 -0.11328125 2.1171875 C-0.07589844 1.41851562 -0.03851563 0.71984375 0 0 Z " fill="#1F170C" transform="translate(111,31)"/>
<path d="M0 0 C8.57142857 -0.28571429 8.57142857 -0.28571429 12 2 C12 2.33 12 2.66 12 3 C7.71 3 3.42 3 -1 3 C-0.67 2.01 -0.34 1.02 0 0 Z " fill="#552212" transform="translate(101,104)"/>
<path d="M0 0 C0.99 0.33 1.98 0.66 3 1 C3.94921875 3.28515625 3.94921875 3.28515625 4.6875 6.0625 C4.93886719 6.98160156 5.19023437 7.90070313 5.44921875 8.84765625 C5.63097656 9.55792969 5.81273437 10.26820312 6 11 C6.66 11 7.32 11 8 11 C8.66 12.98 9.32 14.96 10 17 C9.01 16.34 8.02 15.68 7 15 C7 14.01 7 13.02 7 12 C6.01 11.67 5.02 11.34 4 11 C2.83203125 9.00390625 2.83203125 9.00390625 1.8125 6.5625 C1.46832031 5.75941406 1.12414062 4.95632812 0.76953125 4.12890625 C0 2 0 2 0 0 Z " fill="#473727" transform="translate(13,80)"/>
<path d="M0 0 C2.97 0 5.94 0 9 0 C9 0.99 9 1.98 9 3 C10.32 3.33 11.64 3.66 13 4 C9.77272143 5.61363928 7.31076949 4.08456242 4 3 C2.64649406 2.37530495 1.30065517 1.7283669 0 1 C0 0.67 0 0.34 0 0 Z " fill="#A15C40" transform="translate(79,76)"/>
<path d="M0 0 C0 0.99 0 1.98 0 3 C-1.49691423 4.23658132 -2.99726582 5.46987136 -4.53125 6.66015625 C-6.53708034 8.48994297 -7.26354754 10.4224164 -8 13 C-8.99 12.67 -9.98 12.34 -11 12 C-8.01228098 6.55336178 -5.46279625 3.04900256 0 0 Z " fill="#191008" transform="translate(28,26)"/>
<path d="M0 0 C0.33 0.99 0.66 1.98 1 3 C0.01 4.485 0.01 4.485 -1 6 C0.32 6.33 1.64 6.66 3 7 C1.02 7.33 -0.96 7.66 -3 8 C-2.67 6.02 -2.34 4.04 -2 2 C-3.32 2 -4.64 2 -6 2 C-6.33 2.66 -6.66 3.32 -7 4 C-7.33 3.01 -7.66 2.02 -8 1 C-5.36 0.67 -2.72 0.34 0 0 Z " fill="#A45A43" transform="translate(108,85)"/>
<path d="M0 0 C1.21236328 0.01353516 1.21236328 0.01353516 2.44921875 0.02734375 C3.37154297 0.04474609 3.37154297 0.04474609 4.3125 0.0625 C4.3125 0.3925 4.3125 0.7225 4.3125 1.0625 C2.3325 1.0625 0.3525 1.0625 -1.6875 1.0625 C-1.6875 1.7225 -1.6875 2.3825 -1.6875 3.0625 C-2.3475 3.0625 -3.0075 3.0625 -3.6875 3.0625 C-4.0175 3.7225 -4.3475 4.3825 -4.6875 5.0625 C-7.3275 4.7325 -9.9675 4.4025 -12.6875 4.0625 C-12.6875 3.7325 -12.6875 3.4025 -12.6875 3.0625 C-11.0375 3.0625 -9.3875 3.0625 -7.6875 3.0625 C-7.6875 2.4025 -7.6875 1.7425 -7.6875 1.0625 C-4.80538698 0.10179566 -2.98899956 -0.04331883 0 0 Z " fill="#684032" transform="translate(47.6875,70.9375)"/>
<path d="M0 0 C-1.125 2.5 -1.125 2.5 -3 5 C-6.1875 5.3125 -6.1875 5.3125 -9 5 C-8.00233891 2.50584728 -7.31383315 1.21259665 -5.0625 -0.3125 C-3 -1 -3 -1 0 0 Z " fill="#29100E" transform="translate(9,141)"/>
<path d="M0 0 C0.99 0 1.98 0 3 0 C4.09658936 3.28976808 3.79953138 4.71303767 3 8 C1.68 8 0.36 8 -1 8 C-0.67 5.36 -0.34 2.72 0 0 Z " fill="#5D2F1E" transform="translate(99,69)"/>
<path d="M0 0 C0.99 0.495 0.99 0.495 2 1 C2 1.66 2 2.32 2 3 C2.66 3 3.32 3 4 3 C5.3271261 6.9813783 5.06915913 10.85045227 5 15 C4.67 15 4.34 15 4 15 C4 13.02 4 11.04 4 9 C3.34 9 2.68 9 2 9 C1.34 6.03 0.68 3.06 0 0 Z " fill="#4E2416" transform="translate(30,89)"/>
<path d="M0 0 C0.33 0.99 0.66 1.98 1 3 C1.99 3 2.98 3 4 3 C4 5.64 4 8.28 4 11 C3.67 11 3.34 11 3 11 C3 8.69 3 6.38 3 4 C2.34 4 1.68 4 1 4 C1 5.98 1 7.96 1 10 C0.34 10 -0.32 10 -1 10 C-1.125 2.25 -1.125 2.25 0 0 Z " fill="#A6906A" transform="translate(121,80)"/>
<path d="M0 0 C1.98 0.66 3.96 1.32 6 2 C6.33 3.65 6.66 5.3 7 7 C4.69 6.34 2.38 5.68 0 5 C0 3.35 0 1.7 0 0 Z " fill="#AA7D5E" transform="translate(104,51)"/>
<path d="M0 0 C3 3.75 3 3.75 3 6 C4.32 5.67 5.64 5.34 7 5 C6.67 5.99 6.34 6.98 6 8 C3.69 8 1.38 8 -1 8 C-0.67 5.36 -0.34 2.72 0 0 Z " fill="#CD8C61" transform="translate(29,113)"/>
<path d="M0 0 C0.99 0 1.98 0 3 0 C3.33 2.31 3.66 4.62 4 7 C2.68 7.33 1.36 7.66 0 8 C-0.79953138 4.71303767 -1.09658936 3.28976808 0 0 Z " fill="#996D46" transform="translate(114,98)"/>
<path d="M0 0 C2.64 0.33 5.28 0.66 8 1 C8.33 2.32 8.66 3.64 9 5 C4.68607774 4.5206753 2.83430453 3.2542015 0 0 Z " fill="#C97E5B" transform="translate(88,82)"/>
<path d="M0 0 C0 0.99 0 1.98 0 3 C-0.99 3 -1.98 3 -3 3 C-3 3.99 -3 4.98 -3 6 C-4.98 6.99 -4.98 6.99 -7 8 C-6.67 5.69 -6.34 3.38 -6 1 C-4.7934375 1.0309375 -4.7934375 1.0309375 -3.5625 1.0625 C-1.06645115 1.29633621 -1.06645115 1.29633621 0 0 Z " fill="#201212" transform="translate(41,67)"/>
<path d="M0 0 C0.66 0.33 1.32 0.66 2 1 C1.2884375 1.6496875 1.2884375 1.6496875 0.5625 2.3125 C-1.23686957 4.02309613 -1.23686957 4.02309613 -2 7 C-3.98 7 -5.96 7 -8 7 C-3.375 1.125 -3.375 1.125 0 0 Z " fill="#593125" transform="translate(64,61)"/>
<path d="M0 0 C1.98 0.66 3.96 1.32 6 2 C6 4.31 6 6.62 6 9 C5.01 9.495 5.01 9.495 4 10 C2.68 6.7 1.36 3.4 0 0 Z " fill="#311D14" transform="translate(24,99)"/>
<path d="M0 0 C1.4540625 0.0309375 1.4540625 0.0309375 2.9375 0.0625 C3.5625 1.9375 3.5625 1.9375 3.9375 4.0625 C3.2775 4.7225 2.6175 5.3825 1.9375 6.0625 C1.6075 4.4125 1.2775 2.7625 0.9375 1.0625 C0.2775 1.0625 -0.3825 1.0625 -1.0625 1.0625 C-1.0625 1.7225 -1.0625 2.3825 -1.0625 3.0625 C-3.0625 4.6875 -3.0625 4.6875 -5.0625 6.0625 C-3.98897059 0.08140756 -3.98897059 0.08140756 0 0 Z " fill="#AA634E" transform="translate(53.0625,82.9375)"/>
<path d="M0 0 C1.32 0 2.64 0 4 0 C4 1.32 4 2.64 4 4 C4.66 4 5.32 4 6 4 C6.33 5.98 6.66 7.96 7 10 C6.34 9.67 5.68 9.34 5 9 C5 8.01 5 7.02 5 6 C4.34 6 3.68 6 3 6 C3 5.34 3 4.68 3 4 C2.01 3.67 1.02 3.34 0 3 C0 2.01 0 1.02 0 0 Z " fill="#752D1C" transform="translate(40,79)"/>
<path d="M0 0 C1.2989839 0.90626784 2.58893167 1.82549537 3.875 2.75 C4.59429687 3.26046875 5.31359375 3.7709375 6.0546875 4.296875 C8.08570565 6.07503547 8.97855012 7.52701607 10 10 C6.4628562 9.43867066 5.00738321 8.30442253 2.75 5.5625 C1.96882813 4.63630859 1.96882813 4.63630859 1.171875 3.69140625 C0 2 0 2 0 0 Z " fill="#404733" transform="translate(92,136)"/>
<path d="M0 0 C1.65 0 3.3 0 5 0 C5.33 1.65 5.66 3.3 6 5 C4.35 5 2.7 5 1 5 C0.67 3.35 0.34 1.7 0 0 Z " fill="#7C3B19" transform="translate(108,110)"/>
<path d="M0 0 C1.5 1.125 1.5 1.125 3 3 C3.1875 6.1875 3.1875 6.1875 3 9 C2.01 9 1.02 9 0 9 C0 7.35 0 5.7 0 4 C-0.66 3.67 -1.32 3.34 -2 3 C-1.34 2.01 -0.68 1.02 0 0 Z " fill="#A05F49" transform="translate(104,75)"/>
<path d="M0 0 C0.99 0 1.98 0 3 0 C3 0.99 3 1.98 3 3 C5.97 3.495 5.97 3.495 9 4 C7.625 6 7.625 6 6 8 C5.34 8 4.68 8 4 8 C4 7.01 4 6.02 4 5 C3.01 4.67 2.02 4.34 1 4 C1.33 3.01 1.66 2.02 2 1 C1.34 0.67 0.68 0.34 0 0 Z " fill="#975B37" transform="translate(103,63)"/>
<path d="M0 0 C1.98 0 3.96 0 6 0 C6 0.99 6 1.98 6 3 C3.69 3.66 1.38 4.32 -1 5 C-0.67 3.35 -0.34 1.7 0 0 Z " fill="#A35633" transform="translate(98,97)"/>
<path d="M0 0 C0.99 0 1.98 0 3 0 C3.99 2.31 4.98 4.62 6 7 C4.68 7 3.36 7 2 7 C2 6.01 2 5.02 2 4 C1.01 3.67 0.02 3.34 -1 3 C-0.67 2.01 -0.34 1.02 0 0 Z " fill="#581A09" transform="translate(42,85)"/>
<path d="M0 0 C0.99 0 1.98 0 3 0 C3.66 0.66 4.32 1.32 5 2 C4.625 4.625 4.625 4.625 4 7 C3.01 7 2.02 7 1 7 C0.67 4.69 0.34 2.38 0 0 Z " fill="#9D694E" transform="translate(104,68)"/>
<path d="M0 0 C1.32 0.99 2.64 1.98 4 3 C3.67 4.65 3.34 6.3 3 8 C2.01 8 1.02 8 0 8 C0 5.36 0 2.72 0 0 Z " fill="#0F060A" transform="translate(11,49)"/>
<path d="M0 0 C7.42857143 -0.28571429 7.42857143 -0.28571429 11 2 C10.67 2.66 10.34 3.32 10 4 C6.7 3.34 3.4 2.68 0 2 C0 1.34 0 0.68 0 0 Z " fill="#4C311F" transform="translate(95,18)"/>
<path d="M0 0 C0.33 0 0.66 0 1 0 C1 3.3 1 6.6 1 10 C1.66 10 2.32 10 3 10 C3 11.65 3 13.3 3 15 C2.34 15 1.68 15 1 15 C-0.09506492 11.71480525 -0.09960608 9.26336585 -0.0625 5.8125 C-0.05347656 4.72582031 -0.04445313 3.63914063 -0.03515625 2.51953125 C-0.02355469 1.68808594 -0.01195313 0.85664063 0 0 Z " fill="#56322D" transform="translate(28,131)"/>
<path d="M0 0 C0 0.33 0 0.66 0 1 C-1.98 1 -3.96 1 -6 1 C-6 1.66 -6 2.32 -6 3 C-8.64 3 -11.28 3 -14 3 C-14 2.34 -14 1.68 -14 1 C-9.32798795 -0.20568053 -4.78503708 -0.09382426 0 0 Z " fill="#84472F" transform="translate(113,107)"/>
<path d="M0 0 C1.04059132 3.12177395 1.32284898 4.07083439 0 7 C-2.5625 8.25 -2.5625 8.25 -5 9 C-3.7508258 5.54074837 -2.32472205 2.85306797 0 0 Z " fill="#75473B" transform="translate(60,71)"/>
<path d="M0 0 C5.75 1.875 5.75 1.875 8 3 C7.67 4.32 7.34 5.64 7 7 C5.83040013 6.02433888 4.66438823 5.044375 3.5 4.0625 C2.8503125 3.51722656 2.200625 2.97195312 1.53125 2.41015625 C1.0259375 1.94480469 0.520625 1.47945312 0 1 C0 0.67 0 0.34 0 0 Z " fill="#3D2818" transform="translate(102,47)"/>
<path d="M0 0 C2.97 0.495 2.97 0.495 6 1 C5.67 2.32 5.34 3.64 5 5 C2.525 4.01 2.525 4.01 0 3 C0 2.01 0 1.02 0 0 Z " fill="#D6DEBB" transform="translate(95,134)"/>
<path d="M0 0 C0.33 0.66 0.66 1.32 1 2 C1.99 2.33 2.98 2.66 4 3 C2.68 3.33 1.36 3.66 0 4 C0 4.66 0 5.32 0 6 C-1.32 6 -2.64 6 -4 6 C-3.67 5.01 -3.34 4.02 -3 3 C-2.01 3 -1.02 3 0 3 C0 2.01 0 1.02 0 0 Z " fill="#CC7B5D" transform="translate(111,85)"/>
<path d="M0 0 C0.33 0 0.66 0 1 0 C1 3.3 1 6.6 1 10 C-0.32 10 -1.64 10 -3 10 C-2.690625 9.46375 -2.38125 8.9275 -2.0625 8.375 C-0.82172561 5.6015043 -0.4090325 2.99957163 0 0 Z " fill="#5A2233" transform="translate(18,136)"/>
<path d="M0 0 C0.93423645 3.01031744 1.04449911 3.86650268 0 7 C-0.66 7 -1.32 7 -2 7 C-2 7.99 -2 8.98 -2 10 C-2.66 10 -3.32 10 -4 10 C-3.34 7.69 -2.68 5.38 -2 3 C-1.34 3 -0.68 3 0 3 C0 2.01 0 1.02 0 0 Z " fill="#361510" transform="translate(89,136)"/>
<path d="M0 0 C2.49361571 1.20381448 4.68143083 2.45428722 7 4 C4.36 4 1.72 4 -1 4 C-0.67 2.68 -0.34 1.36 0 0 Z " fill="#A55F48" transform="translate(45,93)"/>
<path d="M0 0 C1.32 0.33 2.64 0.66 4 1 C0.12435233 4.61139896 0.12435233 4.61139896 -2 6 C-4.375 5.8125 -4.375 5.8125 -6 5 C-5.38125 4.731875 -4.7625 4.46375 -4.125 4.1875 C-1.7004767 3.04443152 -1.7004767 3.04443152 0 0 Z " fill="#200E0B" transform="translate(61,55)"/>
<path d="M0 0 C0.33 0 0.66 0 1 0 C1.33 4.29 1.66 8.58 2 13 C1.01 13 0.02 13 -1 13 C-0.67 8.71 -0.34 4.42 0 0 Z " fill="#32160F" transform="translate(27,133)"/>
<path d="M0 0 C0.99 0 1.98 0 3 0 C2.42415568 2.38564077 1.77772405 4.66682784 1 7 C0.34 7 -0.32 7 -1 7 C-1.33 6.01 -1.66 5.02 -2 4 C-1.34 4 -0.68 4 0 4 C0 2.68 0 1.36 0 0 Z " fill="#502B1A" transform="translate(31,105)"/>
<path d="M0 0 C0.66 0 1.32 0 2 0 C2 0.66 2 1.32 2 2 C4.64 2.33 7.28 2.66 10 3 C10 3.33 10 3.66 10 4 C7.03 4 4.06 4 1 4 C0.67 2.68 0.34 1.36 0 0 Z " fill="#B66754" transform="translate(41,97)"/>
<path d="M0 0 C2.475 0.495 2.475 0.495 5 1 C5 2.65 5 4.3 5 6 C4.01 5.67 3.02 5.34 2 5 C0.8125 2.4375 0.8125 2.4375 0 0 Z " fill="#756940" transform="translate(120,73)"/>
<path d="M0 0 C-0.33 0.99 -0.66 1.98 -1 3 C-2.98 3 -4.96 3 -7 3 C-7 2.34 -7 1.68 -7 1 C-4.53721199 -0.231394 -2.7204945 -0.07159196 0 0 Z " fill="#4B2515" transform="translate(51,73)"/>
<path d="M0 0 C3.3 0.33 6.6 0.66 10 1 C10 1.33 10 1.66 10 2 C6.7 2.33 3.4 2.66 0 3 C0 2.01 0 1.02 0 0 Z " fill="#1F130B" transform="translate(95,20)"/>
<path d="M0 0 C0.99 0.33 1.98 0.66 3 1 C2.34 2.32 1.68 3.64 1 5 C0.01 5 -0.98 5 -2 5 C-1.34 3.35 -0.68 1.7 0 0 Z " fill="#763D4D" transform="translate(8,141)"/>
<path d="M0 0 C0.66 0 1.32 0 2 0 C2.33 2.31 2.66 4.62 3 7 C2.01 6.67 1.02 6.34 0 6 C0 4.02 0 2.04 0 0 Z " fill="#723143" transform="translate(12,139)"/>
<path d="M0 0 C3.0916909 2.52956528 3.90931332 5.22454612 5 9 C4.34 9 3.68 9 3 9 C0.56839395 5.63316085 0 4.26649636 0 0 Z " fill="#1D150A" transform="translate(105,22)"/>
</svg>
